<svg width="120" height="120" viewBox="0 0 120 120" fill="none" xmlns="http://www.w3.org/2000/svg">
<path d="M85 60V80C85 81.3261 84.4732 82.5979 83.5355 83.5355C82.5979 84.4732 81.3261 85 80 85H60M85 15H95C97.6522 15 100.196 16.0536 102.071 17.9289C103.946 19.8043 105 22.3478 105 25V35M85 40V35M105 85V95C105 97.6522 103.946 100.196 102.071 102.071C100.196 103.946 97.6522 105 95 105H85M15 35V25C15 22.3478 16.0536 19.8043 17.9289 17.9289C19.8043 16.0536 22.3478 15 25 15H35M35 85H35.05M35 105H25C22.3478 105 19.8043 103.946 17.9289 102.071C16.0536 100.196 15 97.6522 15 95V85M40 35H55C57.7614 35 60 37.2386 60 40V55C60 57.7614 57.7614 60 55 60H40C37.2386 60 35 57.7614 35 55V40C35 37.2386 37.2386 35 40 35Z" stroke="#C8713A" stroke-width="2" stroke-linecap="round"/>
</svg>
