<svg width="120" height="120" viewBox="0 0 120 120" fill="none" xmlns="http://www.w3.org/2000/svg">
<path d="M90.0029 22.5044V37.5038M97.5035 30.0041H82.5023M56.3137 25.5584C56.4744 24.6982 56.9309 23.9213 57.6042 23.3622C58.2775 22.8031 59.1251 22.4971 60.0003 22.4971C60.8755 22.4971 61.7231 22.8031 62.3964 23.3622C63.0696 23.9213 63.5261 24.6982 63.6868 25.5584L67.6284 46.4001C67.9083 47.8819 68.6285 49.2448 69.6949 50.3111C70.7613 51.3774 72.1245 52.0975 73.6064 52.3774L94.4506 56.3185C95.3109 56.4791 96.0879 56.9356 96.647 57.6088C97.2062 58.282 97.5123 59.1295 97.5123 60.0046C97.5123 60.8797 97.2062 61.7272 96.647 62.4004C96.0879 63.0736 95.3109 63.53 94.4506 63.6907L73.6064 67.6318C72.1245 67.9117 70.7613 68.6318 69.6949 69.6981C68.6285 70.7643 67.9083 72.1273 67.6284 73.609L63.6868 94.4507C63.5261 95.3109 63.0696 96.0878 62.3964 96.6469C61.7231 97.206 60.8755 97.5121 60.0003 97.5121C59.1251 97.5121 58.2775 97.206 57.6042 96.6469C56.9309 96.0878 56.4744 95.3109 56.3137 94.4507L52.3722 73.609C52.0922 72.1273 51.3721 70.7643 50.3056 69.6981C49.2392 68.6318 47.8761 67.9117 46.3942 67.6318L25.55 63.6907C24.6897 63.53 23.9127 63.0736 23.3535 62.4004C22.7944 61.7272 22.4883 60.8797 22.4883 60.0046C22.4883 59.1295 22.7944 58.282 23.3535 57.6088C23.9127 56.9356 24.6897 56.4791 25.55 56.3185L46.3942 52.3774C47.8761 52.0975 49.2392 51.3774 50.3056 50.3111C51.3721 49.2448 52.0922 47.8819 52.3722 46.4001L56.3137 25.5584ZM37.4986 90.0017C37.4986 94.1437 34.1405 97.5014 29.998 97.5014C25.8556 97.5014 22.4974 94.1437 22.4974 90.0017C22.4974 85.8598 25.8556 82.502 29.998 82.502C34.1405 82.502 37.4986 85.8598 37.4986 90.0017Z" stroke="#C8713A" stroke-width="2" stroke-linecap="round"/>
</svg>
